<?xml version="1.0" encoding="UTF-8" standalone="no"?>
<!-- Created with Inkscape (http://www.inkscape.org/) -->

<svg
   width="1.6481824mm"
   height="2.0574057mm"
   viewBox="0 0 1.6481826 2.0574057"
   version="1.1"
   id="svg6157"
   xmlns="http://www.w3.org/2000/svg"
   xmlns:svg="http://www.w3.org/2000/svg">
  <defs
     id="defs6154" />
  <g
     id="layer1"
     transform="translate(-115.79369,-64.769834)">
    <g
       aria-label="B"
       id="text6761"
       style="font-weight:bold;font-size:2.82223px;font-family:FreeSans;-inkscape-font-specification:'FreeSans Bold';fill:#ffffff;stroke-width:0.264583">
      <path
         d="m 117.44188,66.234572 q 0,0.1016 -0.0339,0.197556 -0.0339,0.09596 -0.11007,0.189089 -0.0734,0.09313 -0.22295,0.149578 -0.14958,0.05644 -0.3556,0.05644 h -0.9257 v -2.057406 h 0.91723 q 0.19191,0 0.3302,0.05644 0.14111,0.05644 0.20884,0.146756 0.0706,0.08749 0.10161,0.172156 0.031,0.08467 0.031,0.166511 0,0.132645 -0.0649,0.228601 -0.0649,0.09596 -0.21731,0.194734 0.34149,0.200378 0.34149,0.499535 z m -1.22485,-1.111959 v 0.465668 h 0.46002 q 0.29916,0 0.29916,-0.231423 0,-0.234245 -0.29916,-0.234245 z m 0,0.818447 v 0.533401 h 0.50518 q 0.31327,0 0.31327,-0.265289 0,-0.268112 -0.31327,-0.268112 z"
         id="path6763" />
    </g>
  </g>
</svg>
