<?xml version="1.0" encoding="UTF-8" standalone="no"?>
<!-- Created with Inkscape (http://www.inkscape.org/) -->

<svg
   width="1.8090495mm"
   height="2.1561837mm"
   viewBox="0 0 1.8090497 2.1561837"
   version="1.1"
   id="svg6157"
   xmlns="http://www.w3.org/2000/svg"
   xmlns:svg="http://www.w3.org/2000/svg">
  <defs
     id="defs6154" />
  <g
     id="layer1"
     transform="translate(-117.65585,-64.013395)">
    <g
       aria-label="C"
       id="text6785"
       style="font-weight:bold;font-size:2.82223px;font-family:FreeSans;-inkscape-font-specification:'FreeSans Bold';fill:#ffffff;stroke-width:0.264583">
      <path
         d="m 119.05285,64.744353 q -0.079,-0.369712 -0.44027,-0.369712 -0.25117,0 -0.39229,0.191911 -0.14111,0.191912 -0.14111,0.533402 0,0.335845 0.13547,0.524935 0.13829,0.189089 0.38382,0.189089 0.19756,0 0.31609,-0.107245 0.11854,-0.107245 0.13829,-0.304801 h 0.41205 q -0.0198,0.352779 -0.25683,0.561624 -0.23706,0.206023 -0.62089,0.206023 -0.42898,0 -0.68015,-0.287868 -0.25118,-0.290689 -0.25118,-0.787402 0,-0.499534 0.254,-0.790224 0.254,-0.29069 0.68862,-0.29069 0.36407,0 0.59549,0.194734 0.23425,0.194734 0.26247,0.536224 z"
         id="path6787" />
    </g>
  </g>
</svg>
