<?xml version="1.0" encoding="UTF-8" standalone="no"?>
<!-- Created with Inkscape (http://www.inkscape.org/) -->

<svg
   width="1.8880719mm"
   height="2.1561837mm"
   viewBox="0 0 1.888072 2.1561837"
   version="1.1"
   id="svg6157"
   xmlns="http://www.w3.org/2000/svg"
   xmlns:svg="http://www.w3.org/2000/svg">
  <defs
     id="defs6154" />
  <g
     id="layer1"
     transform="translate(-119.99808,-67.032561)">
    <g
       aria-label="G"
       id="text6843"
       style="font-weight:bold;font-size:2.82223px;font-family:FreeSans;-inkscape-font-specification:'FreeSans Bold';fill:#ffffff;stroke-width:0.264583">
      <path
         d="m 121.48822,67.724008 q -0.11289,-0.330201 -0.49107,-0.330201 -0.26811,0 -0.42333,0.189089 -0.1524,0.18909 -0.1524,0.522113 0,0.31609 0.16368,0.51929 0.16652,0.203201 0.42334,0.203201 0.0395,0 0.0903,-0.0085 0.0536,-0.01129 0.127,-0.03951 0.0734,-0.03105 0.13547,-0.07902 0.0621,-0.04798 0.11006,-0.132644 0.048,-0.08749 0.0593,-0.197556 h -0.46849 V 68.01752 h 0.82409 v 1.111958 h -0.254 l -0.0508,-0.270934 q -0.11853,0.172156 -0.26529,0.251179 -0.14675,0.07902 -0.3556,0.07902 -0.41769,0 -0.69145,-0.304801 -0.27093,-0.3048 -0.27093,-0.773291 0,-0.479779 0.27658,-0.778935 0.27658,-0.299157 0.71967,-0.299157 0.37253,0 0.61242,0.186268 0.23989,0.186267 0.2794,0.505179 z"
         id="path6845" />
    </g>
  </g>
</svg>
