<?xml version="1.0" encoding="UTF-8" standalone="no"?>
<!-- Created with Inkscape (http://www.inkscape.org/) -->

<svg
   width="1.9812056mm"
   height="2.1561837mm"
   viewBox="0 0 1.9812055 2.1561837"
   version="1.1"
   id="svg6157"
   xmlns="http://www.w3.org/2000/svg"
   xmlns:svg="http://www.w3.org/2000/svg">
  <defs
     id="defs6154" />
  <g
     id="layer1"
     transform="translate(-119.77554,-66.728971)">
    <g
       aria-label="O"
       id="text6947"
       style="font-weight:bold;font-size:2.82223px;font-family:FreeSans;-inkscape-font-specification:'FreeSans Bold';fill:#ffffff;stroke-width:0.264583">
      <path
         d="m 120.04647,68.583177 q -0.27093,-0.301979 -0.27093,-0.776114 0,-0.474134 0.27093,-0.776113 0.27376,-0.301979 0.71685,-0.301979 0.44591,0 0.71967,0.301979 0.27376,0.299156 0.27376,0.790224 0,0.457202 -0.27094,0.762003 -0.26811,0.301978 -0.71967,0.301978 -0.44873,0 -0.71967,-0.301978 z m 0.71967,-1.49296 q -0.25682,0 -0.41204,0.197556 -0.15523,0.194734 -0.15523,0.51929 0,0.324557 0.15523,0.522113 0.15522,0.194734 0.41204,0.194734 0.254,0 0.40923,-0.194734 0.15804,-0.194734 0.15804,-0.510824 0,-0.333023 -0.15522,-0.530579 -0.1524,-0.197556 -0.41205,-0.197556 z"
         id="path6949" />
    </g>
  </g>
</svg>
