<?xml version="1.0" encoding="UTF-8" standalone="no"?>
<!-- Created with Inkscape (http://www.inkscape.org/) -->

<svg
   width="1.9812056mm"
   height="2.2436728mm"
   viewBox="0 0 1.9812055 2.2436728"
   version="1.1"
   id="svg6157"
   xmlns="http://www.w3.org/2000/svg"
   xmlns:svg="http://www.w3.org/2000/svg">
  <defs
     id="defs6154" />
  <g
     id="layer1"
     transform="translate(-119.83416,-66.361547)">
    <g
       aria-label="Q"
       id="text6973"
       style="font-weight:bold;font-size:2.82223px;font-family:FreeSans;-inkscape-font-specification:'FreeSans Bold';fill:#ffffff;stroke-width:0.264583">
      <path
         d="m 120.82477,66.361547 q 0.44873,0 0.71966,0.304801 0.27094,0.304801 0.27094,0.767647 0,0.208845 -0.0621,0.406401 -0.0593,0.194734 -0.16369,0.321734 l 0.22578,0.21449 -0.21449,0.2286 -0.24271,-0.2286 q -0.23425,0.141111 -0.5334,0.141111 -0.44592,0 -0.71967,-0.301979 -0.27094,-0.3048 -0.27094,-0.776113 0,-0.471312 0.27094,-0.773291 0.27375,-0.304801 0.71967,-0.304801 z m 0.24271,1.306693 0.23142,0.220134 q 0.0931,-0.186267 0.0931,-0.445913 0,-0.327378 -0.15522,-0.522112 -0.1524,-0.197556 -0.41204,-0.197556 -0.25683,0 -0.41205,0.197556 -0.15522,0.194734 -0.15522,0.51929 0,0.324557 0.15522,0.522113 0.15522,0.194734 0.40922,0.194734 0.14676,0 0.24836,-0.05362 l -0.21731,-0.206023 z"
         id="path6975" />
    </g>
  </g>
</svg>
