<?xml version="1.0" encoding="UTF-8" standalone="no"?>
<!-- Created with Inkscape (http://www.inkscape.org/) -->

<svg
   width="1.6848713mm"
   height="2.0574057mm"
   viewBox="0 0 1.6848712 2.0574057"
   version="1.1"
   id="svg6157"
   xmlns="http://www.w3.org/2000/svg"
   xmlns:svg="http://www.w3.org/2000/svg">
  <defs
     id="defs6154" />
  <g
     id="layer1"
     transform="translate(-122.27768,-66.821279)">
    <g
       aria-label="R"
       id="text6986"
       style="font-weight:bold;font-size:2.82223px;font-family:FreeSans;-inkscape-font-specification:'FreeSans Bold';fill:#ffffff;stroke-width:0.264583">
      <path
         d="m 123.44326,68.525906 q 0,-0.08467 0.003,-0.132645 0.003,-0.04798 0.003,-0.08467 0,-0.129823 -0.0621,-0.186268 -0.0621,-0.05927 -0.20038,-0.05927 h -0.48542 v 0.815625 h -0.42334 v -2.057406 h 1.10349 q 0.15805,0 0.27094,0.05362 0.11571,0.05362 0.17215,0.141111 0.0593,0.08749 0.0847,0.177801 0.0254,0.08749 0.0254,0.183445 0,0.372534 -0.34713,0.508001 0.0762,0.03104 0.11289,0.0508 0.0367,0.01693 0.0734,0.05927 0.0395,0.04233 0.0508,0.0762 0.0141,0.03387 0.0254,0.124178 0.0141,0.09031 0.0169,0.177801 0.003,0.08749 0.006,0.259645 0,0.118534 0.0903,0.169334 v 0.0762 h -0.45438 q -0.0395,-0.07338 -0.0536,-0.141112 -0.0113,-0.06773 -0.0113,-0.211667 z m 0.0677,-1.089381 q 0,-0.158044 -0.0734,-0.208845 -0.0734,-0.05362 -0.22578,-0.05362 h -0.51082 v 0.536224 h 0.51082 q 0.14958,0 0.22296,-0.05362 0.0762,-0.05362 0.0762,-0.220134 z"
         id="path6988" />
    </g>
  </g>
</svg>
