<?xml version="1.0" encoding="UTF-8" standalone="no"?>
<!-- Created with Inkscape (http://www.inkscape.org/) -->

<svg
   width="1.6961603mm"
   height="2.1561837mm"
   viewBox="0 0 1.6961602 2.1561837"
   version="1.1"
   id="svg6157"
   xmlns="http://www.w3.org/2000/svg"
   xmlns:svg="http://www.w3.org/2000/svg">
  <defs
     id="defs6154" />
  <g
     id="layer1"
     transform="translate(-119.58473,-66.537466)">
    <g
       aria-label="S"
       id="text6999"
       style="font-weight:bold;font-size:2.82223px;font-family:FreeSans;-inkscape-font-specification:'FreeSans Bold';fill:#ffffff;stroke-width:0.264583">
      <path
         d="m 121.20752,67.197868 h -0.39512 q -0.0226,-0.321734 -0.4318,-0.321734 -0.16369,0 -0.25964,0.07056 -0.096,0.06773 -0.096,0.183445 0,0.112889 0.0818,0.169334 0.0818,0.05362 0.30762,0.09878 l 0.32173,0.06209 q 0.28505,0.05644 0.41487,0.191912 0.12982,0.132645 0.12982,0.375356 0,0.313268 -0.22295,0.491068 -0.22296,0.174979 -0.62089,0.174979 -0.39511,0 -0.61525,-0.174979 -0.21731,-0.174978 -0.23707,-0.505179 h 0.41205 q 0.0113,0.166512 0.12982,0.254001 0.11854,0.08749 0.33303,0.08749 0.19191,0 0.30197,-0.07338 0.11289,-0.07338 0.11289,-0.2032 0,-0.124179 -0.0875,-0.191912 -0.0875,-0.06773 -0.29915,-0.107245 l -0.28787,-0.05644 q -0.31327,-0.05927 -0.44591,-0.186268 -0.13265,-0.127 -0.13265,-0.36689 0,-0.301978 0.2032,-0.465668 0.20603,-0.166511 0.57574,-0.166511 0.10724,0 0.20602,0.01411 0.1016,0.01411 0.21449,0.05927 0.11289,0.04233 0.19473,0.112889 0.0818,0.06773 0.13547,0.191912 0.0564,0.121356 0.0564,0.282223 z"
         id="path7001" />
    </g>
  </g>
</svg>
