<?xml version="1.0" encoding="UTF-8" standalone="no"?>
<!-- Created with Inkscape (http://www.inkscape.org/) -->

<svg
   width="1.631249mm"
   height="2.1223171mm"
   viewBox="0 0 1.6312489 2.1223171"
   version="1.1"
   id="svg6157"
   xmlns="http://www.w3.org/2000/svg"
   xmlns:svg="http://www.w3.org/2000/svg">
  <defs
     id="defs6154" />
  <g
     id="layer1"
     transform="translate(-119.32865,-66.813787)">
    <g
       aria-label="U"
       id="text7025"
       style="font-weight:bold;font-size:2.82223px;font-family:FreeSans;-inkscape-font-specification:'FreeSans Bold';fill:#ffffff;stroke-width:0.264583">
      <path
         d="m 120.36158,68.916349 q -0.10442,0.01976 -0.21731,0.01976 -0.11289,0 -0.22013,-0.01976 -0.10442,-0.01976 -0.21731,-0.07056 -0.11007,-0.0508 -0.19191,-0.129823 -0.0819,-0.07902 -0.13547,-0.208845 -0.0508,-0.132645 -0.0508,-0.299156 v -1.394182 h 0.42333 v 1.394182 q 0,0.36689 0.39229,0.36689 0.39229,0 0.39229,-0.36689 v -1.394182 h 0.42334 v 1.394182 q 0,0.166511 -0.0536,0.299156 -0.0508,0.129823 -0.13264,0.208845 -0.0818,0.07902 -0.19473,0.129823 -0.11007,0.0508 -0.21732,0.07056 z"
         id="path7027" />
    </g>
  </g>
</svg>
